<svg width="30" height="30" viewBox="0 0 30 30" fill="none" xmlns="http://www.w3.org/2000/svg">
<g clip-path="url(#clip0_2004_10)">
<path d="M0 0H25.2C26.473 0 27.6939 0.505713 28.5941 1.40589C29.4943 2.30606 30 3.52696 30 4.8V25.2C30 26.473 29.4943 27.6939 28.5941 28.5941C27.6939 29.4943 26.473 30 25.2 30H4.8C3.52696 30 2.30606 29.4943 1.40589 28.5941C0.505713 27.6939 0 26.473 0 25.2L0 0Z" fill="#663399"/>
<path d="M24.4962 27.597C23.5245 27.597 22.7814 27.3144 22.2612 26.7465C21.7467 26.1756 21.4788 25.3611 21.4548 24.2973H23.5488C23.5608 25.2381 23.8914 25.7097 24.5412 25.7097C24.8724 25.7097 25.107 25.6047 25.2423 25.3971C25.3746 25.1901 25.4439 24.8592 25.4439 24.4056C25.4439 24.045 25.3536 23.7444 25.179 23.5071C24.9421 23.2248 24.6379 23.0067 24.2946 22.8729L23.5185 22.5C22.8267 22.1694 22.3242 21.7788 22.0143 21.3219C21.7134 20.868 21.5631 20.2311 21.5631 19.4169C21.5631 18.5061 21.828 17.7669 22.3542 17.1987C22.8957 16.6308 23.6328 16.3485 24.5742 16.3485C25.4832 16.3485 26.187 16.6278 26.6832 17.1837C27.1887 17.7429 27.4533 18.5421 27.4746 19.5879H25.4589C25.4709 19.2459 25.4019 18.9063 25.2573 18.5961C25.1433 18.3681 24.9204 18.2538 24.5895 18.2538C24 18.2538 23.7051 18.6051 23.7051 19.3053C23.7051 19.6602 23.7771 19.9365 23.9217 20.1468C24.13 20.3795 24.391 20.5589 24.6828 20.67L25.4259 20.9976C26.193 21.3492 26.7465 21.7791 27.0864 22.299C27.4293 22.8159 27.5979 23.5071 27.5979 24.3726C27.5979 25.4094 27.327 26.2056 26.7765 26.7615C26.229 27.3174 25.4676 27.597 24.4962 27.597ZM17.7336 27.597C16.7616 27.597 16.0188 27.3144 15.4983 26.7465C14.9838 26.1756 14.7162 25.3611 14.6922 24.2973H16.7859C16.7979 25.2381 17.1288 25.7097 17.7789 25.7097C18.1095 25.7097 18.3441 25.6047 18.4764 25.3971C18.612 25.1901 18.678 24.8592 18.678 24.4056C18.678 24.045 18.591 23.7444 18.4164 23.5071C18.1795 23.2248 17.8753 23.0067 17.532 22.8729L16.7559 22.5C16.0638 22.1694 15.5616 21.7788 15.2517 21.3219C14.9508 20.868 14.8005 20.2311 14.8005 19.4169C14.8005 18.5061 15.0651 17.7669 15.5916 17.1987C16.1331 16.6308 16.8702 16.3485 17.8116 16.3485C18.7203 16.3485 19.4241 16.6278 19.9176 17.1837C20.4291 17.7429 20.6907 18.5421 20.7117 19.5879H18.6963C18.7083 19.2459 18.6393 18.9063 18.4947 18.5961C18.3804 18.3681 18.1578 18.2538 17.8269 18.2538C17.2371 18.2538 16.9422 18.6051 16.9422 19.3053C16.9422 19.6602 17.0145 19.9365 17.1588 20.1468C17.3671 20.3795 17.6281 20.5589 17.9199 20.67L18.663 20.9976C19.4301 21.3492 19.9836 21.7791 20.3238 22.299C20.6637 22.8159 20.835 23.5071 20.835 24.3726C20.835 25.4094 20.5614 26.2056 20.0139 26.7615C19.4664 27.3174 18.7053 27.597 17.7336 27.597ZM10.6911 27.597C9.7401 27.597 8.9853 27.3384 8.4258 26.8215C7.8663 26.3079 7.5894 25.5354 7.5894 24.5136V19.4649C7.5894 18.4494 7.8843 17.6799 8.4738 17.151C9.0726 16.6281 9.8577 16.3638 10.8294 16.3638C11.7711 16.3638 12.5139 16.6341 13.0644 17.169C13.6212 17.7069 13.9008 18.5064 13.9008 19.5732V19.9728H11.6838V19.5852C11.6838 19.1736 11.5935 18.87 11.4189 18.6717C11.3426 18.5725 11.244 18.4928 11.1311 18.439C11.0182 18.3852 10.8941 18.3589 10.7691 18.3621C10.4082 18.3621 10.1526 18.4851 10.008 18.7347C9.85409 19.08 9.78497 19.4571 9.8064 19.8345V24.2223C9.8064 25.1388 10.1286 25.6047 10.7694 25.6137C11.07 25.6137 11.2956 25.5054 11.4522 25.2891C11.6223 25.0159 11.7032 24.6965 11.6838 24.3753V24.048H13.9008V24.3906C13.9008 25.1028 13.7625 25.6977 13.4826 26.1726C13.2166 26.6361 12.8173 27.0088 12.3366 27.2424C11.8233 27.4874 11.2598 27.6088 10.6911 27.597Z" fill="white"/>
</g>
<defs>
<clipPath id="clip0_2004_10">
<rect width="30" height="30" fill="white"/>
</clipPath>
</defs>
</svg>
