<svg width="32" height="32" viewBox="0 0 32 32" fill="none" xmlns="http://www.w3.org/2000/svg">
<g clip-path="url(#clip0_2035_40)">
<path d="M8.81672 8.712L6.74847 6.64375L6.75722 21.5938L6.78197 22.2925C6.79222 22.6213 6.85322 22.9923 6.95497 23.3768L23.343 29.1555L27.4395 27.3405L27.441 27.3355L8.81672 8.712Z" fill="#00D2B8"/>
<path d="M6.95498 23.3767L6.95598 23.3777C6.95498 23.371 6.95148 23.3635 6.95148 23.3565C6.95148 23.3635 6.95248 23.37 6.95498 23.3767ZM27.4395 27.3405L23.343 29.1555L6.95598 23.3777C7.26898 24.5787 7.96198 25.9287 8.70773 26.667L14.0557 31.9845L25.947 32L27.441 27.3355L27.4395 27.3405Z" fill="#55DDCA"/>
<path d="M0.379239 16.2645C-0.150261 16.8298 0.11274 17.9958 0.96524 18.8548L4.64249 22.5625L6.95499 23.3768C6.85324 22.9923 6.79224 22.6213 6.78199 22.2925L6.75724 21.5938L6.74849 6.64375L0.379239 16.2645Z" fill="#0081C6"/>
<path d="M23.4775 6.83575C23.093 6.7375 22.7242 6.67675 22.39 6.66625L21.6515 6.64075L6.74847 6.64275L27.443 27.3355H27.4447L29.2622 23.235L23.4775 6.83575Z" fill="#0079B3"/>
<path d="M23.4587 6.83175C23.4667 6.8335 23.473 6.83575 23.4782 6.8365L23.4775 6.83575C23.473 6.8335 23.4667 6.8335 23.4587 6.83175ZM26.7647 8.5915C26.0137 7.83425 24.6815 7.146 23.4782 6.8365L29.2622 23.235L27.4447 27.3355H27.443L31.8845 25.917L31.894 13.74L26.7647 8.5915Z" fill="#00A4E4"/>
<path d="M22.6672 4.53725L18.9605 0.85775C18.1032 0.00849986 16.9367 -0.25575 16.373 0.27225L6.74847 6.64275L21.6515 6.64075L22.39 6.66625C22.7242 6.67675 23.093 6.7375 23.4775 6.83575L22.6672 4.53725Z" fill="#00D2B8"/>
</g>
<defs>
<clipPath id="clip0_2035_40">
<rect width="32" height="32" fill="white"/>
</clipPath>
</defs>
</svg>
