<svg width="32" height="32" viewBox="0 0 32 32" fill="none" xmlns="http://www.w3.org/2000/svg">
<path d="M16 6.0256C11.7334 6.0256 9.06662 8.15897 8 12.4256C9.6 10.2922 11.4666 9.49222 13.6 10.0256C14.8171 10.3298 15.6871 11.213 16.6501 12.1903C18.2189 13.7827 20.0344 15.6256 24 15.6256C28.2666 15.6256 30.9334 13.4922 32 9.2256C30.4 11.359 28.5334 12.159 26.4 11.6256C25.1829 11.3213 24.3129 10.4382 23.3499 9.46085C21.7811 7.86847 19.9656 6.0256 16 6.0256ZM8 15.6256C3.73338 15.6256 1.06662 17.759 0 22.0256C1.6 19.8922 3.46662 19.0922 5.6 19.6256C6.81712 19.9298 7.68712 20.813 8.65012 21.7903C10.2189 23.3827 12.0344 25.2256 16 25.2256C20.2666 25.2256 22.9334 23.0922 24 18.8256C22.4 20.959 20.5334 21.759 18.4 21.2256C17.1829 20.9213 16.3129 20.0382 15.3499 19.0608C13.7811 17.4685 11.9656 15.6256 8 15.6256Z" fill="url(#paint0_linear_1969_12)"/>
<defs>
<linearGradient id="paint0_linear_1969_12" x1="-227.574" y1="949.744" x2="-132.818" y2="2013.02" gradientUnits="userSpaceOnUse">
<stop stop-color="#2298BD"/>
<stop offset="1" stop-color="#0ED7B5"/>
</linearGradient>
</defs>
</svg>
